# xmcd
#
# Track frame offsets:
#	150
#	2769
#	17314
#	32725
#	49196
#	69001
#	86636
#	100909
#	122924
#	142000
#	157078
#	172591
#	198023
#	215033
#	228331
#
# Disc length: 3332 seconds
#
# Revision: 4
# Processed by: cddbd v1.5.2PL0 Copyright (c) Steve Scherf et al.
# Submitted via: audiograbber 1.83.01
#
DISCID=bb0d020f
DTITLE=Amigos - Weihnachten mit den Amigos
DYEAR=2012
DGENRE=Volksmusik
TTITLE0=Amigos - Ein Weihnachtsgruß an unsere Freunde
TTITLE1=Amigos - Weihnachtsmärchen
TTITLE2=Amigos - Und jedes Jahr
TTITLE3=Amigos - Kleine Elisa
TTITLE4=Amigos - In der heiligen Nacht (für Ralf)
TTITLE5=Amigos - Ich hab' ihn nich nie geseh'n
TTITLE6=Amigos - Auch Engel lesen Briefe
TTITLE7=Amigos - An Weihnachten bin ich zu Hause
TTITLE8=Amigos - Lieber Gott lass ein Wunder
TTITLE9=Amigos - Ein kleiner Sonnenschein (für Mailo)
TTITLE10=Amigos - Unter dem Weihnachtsbaum
TTITLE11=Amigos - Weihnachtsgeschichte
TTITLE12=Amigos - Wenn es kalt wird
TTITLE13=Amigos - 1000 Weihnachtskerzen
TTITLE14=Amigos - Reicher Bauer
EXTD=
EXTT0=
EXTT1=
EXTT2=
EXTT3=
EXTT4=
EXTT5=
EXTT6=
EXTT7=
EXTT8=
EXTT9=
EXTT10=
EXTT11=
EXTT12=
EXTT13=
EXTT14=
PLAYORDER=
